HIERARCHY
ROOT SpineBase
{
  OFFSET 0.000000 0.000000 0.000000
  CHANNELS 6 Xposition Yposition Zposition Zrotation Xrotation Yrotation
  JOINT SpineMid
  {
    OFFSET 0.000000 32.434504 0.000000
    CHANNELS 3 Zrotation Xrotation Yrotation
    JOINT SpineShoulder
    {
      OFFSET -0.151946 24.072387 -0.843494
      CHANNELS 3 Zrotation Xrotation Yrotation
      JOINT Neck
      {
        OFFSET -0.137532 7.928484 -0.646329
        CHANNELS 3 Zrotation Xrotation Yrotation
        JOINT Head
        {
          OFFSET -0.710991 14.097995 2.935108
          CHANNELS 3 Zrotation Xrotation Yrotation
          End Site
          {
            OFFSET 0 0 0
          }
        }
      }
      JOINT ShoulderLeft
      {
        OFFSET -14.305214 -4.125263 -1.313852
        CHANNELS 3 Zrotation Xrotation Yrotation
        JOINT ElbowLeft
        {
          OFFSET -14.473252 -12.507569 8.814846
          CHANNELS 3 Zrotation Xrotation Yrotation
          JOINT WristLeft
          {
            OFFSET 5.617258 -20.357972 -5.684599
            CHANNELS 3 Zrotation Xrotation Yrotation
            JOINT HandLeft
            {
              OFFSET 1.078482 -6.680807 -0.156671
              CHANNELS 3 Zrotation Xrotation Yrotation
              JOINT HandTipLeft
              {
                OFFSET 3.281028 -7.085849 -7.094600
                CHANNELS 3 Zrotation Xrotation Yrotation
                End Site
                {
                  OFFSET 0 0 0
                }
              }
              JOINT ThumbLeft
              {
                OFFSET 5.205172 1.762193 -12.005548
                CHANNELS 3 Zrotation Xrotation Yrotation
                End Site
                {
                  OFFSET 0 0 0
                }
              }
            }
          }
        }
      }
      JOINT ShoulderRight
      {
        OFFSET 4.706262 -9.885893 -13.179320
        CHANNELS 3 Zrotation Xrotation Yrotation
        JOINT ElbowRight
        {
          OFFSET 10.279847 -22.443233 3.484230
          CHANNELS 3 Zrotation Xrotation Yrotation
          JOINT WristRight
          {
            OFFSET 14.923046 -1.369954 15.937203
            CHANNELS 3 Zrotation Xrotation Yrotation
            JOINT HandRight
            {
              OFFSET -0.109666 3.367943 8.861777
              CHANNELS 3 Zrotation Xrotation Yrotation
              JOINT HandTipRight
              {
                OFFSET 0.295850 0.618373 -0.152435
                CHANNELS 3 Zrotation Xrotation Yrotation
                End Site
                {
                  OFFSET 0 0 0
                }
              }
              JOINT ThumbRight
              {
                OFFSET -0.571085 0.344386 -2.272115
                CHANNELS 3 Zrotation Xrotation Yrotation
                End Site
                {
                  OFFSET 0 0 0
                }
              }
            }
          }
        }
      }
    }
  }
  JOINT HipLeft
  {
    OFFSET -7.349936 0.759913 -3.982453
    CHANNELS 3 Zrotation Xrotation Yrotation
    JOINT KneeLeft
    {
      OFFSET -17.960021 -26.828066 19.571700
      CHANNELS 3 Zrotation Xrotation Yrotation
      JOINT AnkleLeft
      {
        OFFSET 1.241359 -45.750766 9.877985
        CHANNELS 3 Zrotation Xrotation Yrotation
        JOINT FootLeft
        {
          OFFSET -6.628408 -4.714534 -11.772229
          CHANNELS 3 Zrotation Xrotation Yrotation
          End Site
          {
            OFFSET 0 0 0
          }
        }
      }
    }
  }
  JOINT HipRight
  {
    OFFSET 6.279870 0.358221 -3.551717
    CHANNELS 3 Zrotation Xrotation Yrotation
    JOINT KneeRight
    {
      OFFSET -9.830863 -38.351213 2.332625
      CHANNELS 3 Zrotation Xrotation Yrotation
      JOINT AnkleRight
      {
        OFFSET -6.156846 -41.630139 4.175526
        CHANNELS 3 Zrotation Xrotation Yrotation
        JOINT FootRight
        {
          OFFSET -6.784336 -4.587964 -11.710363
          CHANNELS 3 Zrotation Xrotation Yrotation
          End Site
          {
            OFFSET 0 0 0
          }
        }
      }
    }
  }
}
MOTION
Frames: 15
Frame Time: 0.033333
61.623433 90.992266 345.471518 -1.989992 1.599763 3.308663 -0.594442 -0.365817 -3.379959 -0.499338 0.419168 -0.133581 -19.345584 -6.356185 3.230493 0.000000 0.000000 0.000000 3.442397 -3.067125 2.219328 -21.136096 -14.737095 -3.488756 14.387872 15.970739 -2.161875 -23.712021 -39.638648 0.397436 0.000000 0.000000 0.000000 0.000000 0.000000 0.000000 4.309676 -22.579749 -8.693990 -4.623883 20.513780 10.060642 -0.000000 0.000000 0.000000 3.071907 2.388456 -0.457720 0.000000 0.000000 0.000000 0.000000 0.000000 0.000000 -15.305535 -7.185772 -11.482367 17.649669 -3.350329 5.418452 5.176232 10.925994 -14.856871 0.000000 0.000000 0.000000 4.549537 -3.975084 -2.406784 -4.496968 -2.484299 -0.153016 7.082060 4.090921 -14.960853 0.000000 0.000000 0.000000
61.656602 90.997765 345.409288 -2.557752 1.660548 6.477528 -0.686419 -0.280299 -6.563758 -0.503475 0.420642 -0.160940 -20.398084 -6.629058 3.460012 0.000000 0.000000 0.000000 6.547331 -3.610853 4.735391 -20.510016 -8.498248 -3.685757 12.780402 14.067626 -1.742914 -23.662392 -42.405993 -6.024934 0.000000 0.000000 0.000000 0.000000 0.000000 0.000000 4.775506 -22.777068 -8.747603 -4.465731 20.636977 10.117368 -0.000000 0.000000 0.000000 4.814227 4.457934 -1.168616 0.000000 0.000000 0.000000 0.000000 0.000000 0.000000 -14.077908 -4.946801 -14.824345 17.511618 -7.154444 6.282646 5.209524 13.131361 -15.420827 0.000000 0.000000 0.000000 5.027738 -4.528702 -5.481969 -4.732417 -2.504167 -0.175428 7.304058 4.218472 -15.376841 0.000000 0.000000 0.000000
61.168447 91.144883 345.324862 -3.610327 1.700658 10.192656 -0.671590 0.159161 -10.286968 -0.216057 0.186724 -0.191520 -20.227394 -7.013969 3.498958 0.000000 0.000000 0.000000 8.521265 -4.732158 6.890826 -19.469583 -3.397788 -4.118958 12.119854 11.018295 -1.946663 -24.692502 -43.671296 -8.472637 0.000000 0.000000 0.000000 0.000000 0.000000 0.000000 4.208828 -21.710514 -8.643412 -2.765787 19.627741 9.466377 -0.000000 0.000000 0.000000 6.285001 6.218148 -1.841628 0.000000 0.000000 0.000000 0.000000 0.000000 0.000000 -10.596614 -3.194900 -17.634872 15.867151 -10.726120 6.299376 4.869232 14.810042 -15.823383 0.000000 0.000000 0.000000 6.307715 -5.688125 -8.918061 -5.100318 -1.924323 -0.283393 7.103842 4.190567 -15.626902 0.000000 0.000000 0.000000
61.671666 91.318345 345.889093 -3.659104 1.229588 1.406075 -0.488439 0.232322 -1.500563 -0.643383 0.303437 -0.220258 -19.831411 -6.675929 3.629641 0.000000 0.000000 0.000000 8.661614 -5.819034 8.244162 -18.771392 -0.611345 -4.572875 12.690955 10.606633 -2.079025 -26.392810 -44.163400 -8.447400 0.000000 0.000000 0.000000 0.000000 0.000000 0.000000 5.247817 -21.959691 -8.521065 -8.266920 23.154366 12.324023 3.627715 -4.880486 -0.852818 -18.484890 -4.670318 -2.311670 0.000000 0.000000 0.000000 0.000000 0.000000 0.000000 -10.247109 -5.691015 -8.332329 15.579989 -10.583807 5.257112 5.149222 15.837472 -15.697216 0.000000 0.000000 0.000000 6.407210 -2.740172 -0.703982 -4.214607 -2.508648 -0.066055 6.913275 3.330412 -15.227723 0.000000 0.000000 0.000000
61.853129 93.501101 347.489019 -4.186912 -0.267165 18.198806 -0.053542 0.373058 -18.347905 -0.704792 0.399372 -0.235316 -18.783002 -4.565093 4.277679 0.000000 0.000000 0.000000 7.031070 -6.235171 8.484168 -16.654304 0.917179 -4.626006 12.615904 8.083903 -2.528748 -27.315695 -42.553060 -4.455330 0.000000 0.000000 0.000000 0.000000 0.000000 0.000000 6.980641 -22.081850 -8.611244 -9.186209 23.588755 12.462673 2.891385 -3.172411 -0.527461 -29.491600 -19.237044 -2.787028 0.000000 0.000000 0.000000 0.000000 0.000000 0.000000 -7.020257 4.947984 -27.783211 16.684577 -16.915183 10.362215 4.552331 16.273496 -14.502878 0.000000 0.000000 0.000000 6.255123 -3.902216 -17.372439 -3.846568 -1.371909 -0.224457 5.975517 2.948463 -14.017794 0.000000 0.000000 0.000000
61.351463 94.624147 349.143987 -5.326888 -1.363452 26.229023 0.146392 -0.439458 -26.497062 -0.447998 1.009794 -0.215490 -17.679488 -2.826366 4.777215 0.000000 0.000000 0.000000 5.776797 -5.765499 7.874636 -13.415466 1.143225 -4.672038 -0.894049 9.426575 0.132172 -13.416199 -40.092484 -3.011739 0.000000 0.000000 0.000000 0.000000 0.000000 0.000000 7.083854 -22.495633 -9.423433 -3.461972 20.959561 9.806249 -1.910528 3.123419 0.916534 3.087427 0.173199 -0.092614 0.000000 0.000000 0.000000 0.000000 0.000000 0.000000 -3.778853 9.027317 -37.774955 18.129437 -18.473435 13.037807 4.858352 15.678849 -15.037676 0.000000 0.000000 0.000000 7.407394 -4.200070 -25.471452 -3.665484 -0.906254 -0.251696 5.788455 2.267785 -14.414938 0.000000 0.000000 0.000000
61.073553 95.260018 351.153081 -5.530853 -2.893334 31.409074 -0.201173 -0.489650 -31.789395 0.032810 1.742781 -0.176178 -18.519484 -1.750727 5.353156 0.000000 0.000000 0.000000 1.072219 -6.477183 6.045641 -7.991459 1.277085 -3.698351 5.408215 8.669917 -0.880521 -17.997542 -35.527614 0.492687 0.000000 0.000000 0.000000 0.000000 0.000000 0.000000 9.424471 -23.987350 -9.656866 8.068127 11.649056 5.344376 -15.590012 17.548196 6.160610 37.617438 9.834211 -1.468107 0.000000 0.000000 0.000000 0.000000 0.000000 0.000000 -0.928159 12.502245 -44.636106 19.150495 -19.031724 15.137692 4.717952 14.611774 -14.450200 0.000000 0.000000 0.000000 8.129097 -3.280908 -30.901022 -3.351209 -0.505304 -0.251977 5.364726 1.450619 -13.755734 0.000000 0.000000 0.000000
60.964460 95.304163 353.075015 -5.356185 -4.418183 29.487104 -0.750876 -0.319822 -29.943927 0.634039 2.346652 -0.156052 -19.045351 -0.520965 5.881361 0.000000 0.000000 0.000000 -3.631057 -6.205376 3.665564 -1.473826 1.033315 -2.641058 4.505597 7.776591 -0.517109 -17.793141 -31.163741 3.923962 0.000000 0.000000 0.000000 0.000000 0.000000 0.000000 12.458728 -25.034364 -9.414854 21.947450 -4.048724 0.665167 -37.486942 32.448136 18.657350 41.888486 13.523587 -4.010050 0.000000 0.000000 0.000000 0.000000 0.000000 0.000000 0.151228 12.783890 -41.595176 16.492569 -17.692837 13.553085 4.755679 12.995126 -13.341149 0.000000 0.000000 0.000000 9.171158 -0.016233 -29.656778 -2.645870 -1.138390 0.016275 4.821772 0.542447 -12.638341 0.000000 0.000000 0.000000
61.034598 94.831540 355.414000 -4.642860 -6.172474 27.686228 -1.275618 -0.055961 -28.147816 1.007571 2.455024 -0.175072 -20.202682 1.286138 6.746984 0.000000 0.000000 0.000000 -7.681655 -6.306833 3.073248 3.129602 2.019803 -2.794523 5.070814 9.579857 -0.017013 -20.691149 -30.571145 6.166304 0.000000 0.000000 0.000000 0.000000 0.000000 0.000000 17.410347 -26.126803 -8.719063 27.774772 -15.584180 -1.548844 -57.288288 38.263341 33.050915 34.086692 18.856502 -8.805074 0.000000 0.000000 0.000000 0.000000 0.000000 0.000000 1.948801 15.082030 -39.906615 14.726885 -18.218037 13.532829 4.550098 11.796600 -11.822868 0.000000 0.000000 0.000000 9.338214 4.145893 -28.669269 -1.647083 -1.878380 0.352700 4.369596 -0.550373 -11.050397 0.000000 0.000000 0.000000
61.160704 93.684844 357.536429 -3.685080 -7.539699 19.766465 -1.606619 -0.034637 -20.161959 1.209260 2.496116 -0.186674 -23.581225 1.676386 7.792224 0.000000 0.000000 0.000000 -8.200824 -4.142310 2.624460 4.039495 1.322821 -2.444339 2.268703 7.787921 0.291552 -17.052470 -25.744618 8.403121 0.000000 0.000000 0.000000 0.000000 0.000000 0.000000 20.961563 -25.391561 -7.715907 27.686574 -23.565186 -4.621470 -66.098703 37.186367 40.258830 35.758816 26.986681 -12.386960 0.000000 0.000000 0.000000 0.000000 0.000000 0.000000 1.656829 14.189323 -28.874786 10.243976 -16.812270 9.875611 3.836852 10.759846 -9.901965 0.000000 0.000000 0.000000 7.843875 9.479257 -21.573606 0.470819 -2.523854 0.908817 2.991535 -2.151447 -9.076284 0.000000 0.000000 0.000000
61.436768 92.107864 359.698421 -2.763716 -8.552390 15.560019 -1.724190 0.156055 -15.856568 1.242489 2.194701 -0.199246 -26.481157 1.733221 8.656242 0.000000 0.000000 0.000000 -4.815428 1.638886 0.880635 -0.328216 -3.033525 -0.202848 -2.321416 4.361014 0.112425 -10.392374 -21.362680 9.280122 0.000000 0.000000 0.000000 0.000000 0.000000 0.000000 22.593597 -20.317559 -6.205932 24.737844 -30.860045 -8.142174 -63.568644 31.194820 42.707133 37.009268 35.160764 -19.685184 0.000000 0.000000 0.000000 0.000000 0.000000 0.000000 -0.035944 15.781512 -24.646763 10.040634 -16.639386 10.030365 3.149761 10.196468 -6.825290 0.000000 0.000000 0.000000 5.671432 13.171819 -17.724109 2.066087 -2.589192 1.291689 1.835170 -3.804251 -5.971361 0.000000 0.000000 0.000000
61.477354 89.985719 361.377871 -2.102268 -8.890724 4.812180 -1.684085 0.171500 -5.029525 1.145449 1.650278 -0.201353 -29.676373 1.324929 9.469600 0.000000 0.000000 0.000000 -3.560597 4.365370 -0.211411 -2.659985 -6.616748 0.452897 -6.144532 8.788085 2.063864 -6.510125 -23.635488 7.933983 0.000000 0.000000 0.000000 0.000000 0.000000 0.000000 26.445596 -21.365698 -5.537460 17.376829 -26.706365 -9.013337 -53.611369 23.732992 39.583668 35.422201 42.644025 -27.750704 0.000000 0.000000 0.000000 0.000000 0.000000 0.000000 -4.671638 14.670142 -12.885162 10.172900 -15.624224 9.396915 2.630346 10.331083 -4.015239 0.000000 0.000000 0.000000 1.163078 16.287504 -6.871901 3.876228 -2.637731 1.779959 0.587792 -5.618500 -3.131368 0.000000 0.000000 0.000000
61.269777 87.569750 362.555853 -1.873852 -8.713718 -9.211364 -1.518456 0.430558 9.027942 0.947185 0.940469 -0.194775 -31.462005 0.413465 9.607400 0.000000 0.000000 0.000000 -2.739663 6.020893 -1.448641 -5.433102 -10.057602 1.312709 -7.030935 10.753273 2.809980 -4.487811 -24.530652 7.908738 0.000000 0.000000 0.000000 0.000000 0.000000 0.000000 24.481074 -18.156410 -5.195918 13.728366 -22.000168 -7.979666 -43.422068 18.510630 34.891273 31.577524 45.647513 -32.440229 0.000000 0.000000 0.000000 0.000000 0.000000 0.000000 -8.837743 10.957506 2.139494 10.519959 -13.812281 8.484816 -0.619341 13.408123 0.312555 0.000000 0.000000 0.000000 -4.652674 17.602347 7.588377 5.863331 -2.757599 2.420906 -1.195557 -7.495459 -0.172636 0.000000 0.000000 0.000000
61.734357 86.724223 363.796403 -1.404432 -8.694694 -25.384417 -0.992096 0.447929 25.222027 -0.008384 0.805576 -0.154896 -32.460868 -0.006899 9.682323 0.000000 0.000000 0.000000 -6.642945 3.001496 -0.466474 -7.762256 -6.813001 2.535617 -5.778230 11.297901 1.635031 -1.395483 -23.596062 10.954873 0.000000 0.000000 0.000000 0.000000 0.000000 0.000000 19.935067 -13.026558 -4.875866 8.081590 -12.247776 -4.717258 -31.096688 12.445015 29.752282 22.419391 45.639167 -37.261701 0.000000 0.000000 0.000000 0.000000 0.000000 0.000000 -12.642826 6.013200 18.219333 10.827292 -13.367732 8.010872 -0.217253 13.392573 3.293635 0.000000 0.000000 0.000000 -11.857983 17.432081 24.213383 6.962140 -3.512738 3.181127 -3.258503 -9.476558 4.744272 0.000000 0.000000 0.000000
61.212993 88.575348 364.711802 -2.263493 -8.792293 -19.516083 0.024943 0.712259 19.214141 -0.528408 0.834024 -0.153838 -31.872357 -0.061804 9.681228 0.000000 0.000000 0.000000 -4.649439 4.918052 -1.219825 -10.113714 -9.756737 2.665682 -7.444610 10.848604 1.901390 -1.005126 -24.462968 12.444459 0.000000 0.000000 0.000000 0.000000 0.000000 0.000000 11.203929 -4.943269 -4.074809 11.129838 -10.111255 -1.144094 -27.338225 11.306758 31.933105 14.340891 40.306717 -42.828263 0.000000 0.000000 0.000000 0.000000 0.000000 0.000000 -11.979288 14.118035 9.663748 11.049266 -21.201508 11.926142 2.485059 11.119588 4.871657 0.000000 0.000000 0.000000 -7.870543 18.710106 17.980621 5.911414 -2.909106 2.807822 -4.042921 -9.573509 6.424080 0.000000 0.000000 0.000000
